# Blender 3.6.5
# www.blender.org
mtllib Car.mtl
o Car
v -0.271207 0.029500 0.361289
v -0.277908 0.160932 0.344289
v -0.271207 0.029500 -0.369724
v -0.277908 0.171447 -0.358967
v 0.251461 0.029500 0.361289
v 0.258162 0.160932 0.344289
v 0.251461 0.029500 -0.369724
v 0.258162 0.171447 -0.358967
v -0.269532 0.176704 0.133910
v -0.269532 0.176704 -0.261347
v 0.249786 0.176704 -0.261347
v 0.249786 0.176704 0.133910
v -0.191634 0.281850 0.032121
v -0.191634 0.281850 -0.202059
v 0.171888 0.281850 -0.202059
v 0.171888 0.281850 0.032121
v -0.009873 0.190373 -0.361224
v -0.009873 0.029500 -0.369724
v -0.009873 0.176704 0.363839
v -0.009873 0.029500 0.378290
v -0.009873 0.190373 -0.278348
v -0.009873 0.190373 0.142410
v -0.009873 0.295519 -0.219059
v -0.009873 0.295519 0.040621
v 0.250095 0.166190 0.352789
v -0.269796 0.166190 0.352789
v -0.269233 0.176704 -0.361224
v 0.249701 0.176704 -0.361224
v -0.277908 0.171447 -0.063719
v -0.271207 0.029500 -0.063719
v 0.258162 0.171447 -0.063719
v 0.251461 0.029500 -0.063719
v -0.009873 0.029500 -0.063719
v -0.269532 0.176704 -0.063719
v 0.249786 0.176704 -0.063719
v -0.191634 0.287107 -0.084969
v 0.171888 0.287107 -0.084969
v -0.009873 0.300776 -0.084969
v 0.119956 0.187219 -0.274098
v 0.081007 0.292365 -0.214809
v 0.120111 0.176704 0.361289
v 0.119956 0.187219 0.142410
v 0.081007 0.292365 0.040621
v 0.119914 0.187219 -0.361224
v 0.081007 0.297622 -0.084969
v -0.139702 0.187219 0.142410
v -0.139553 0.187219 -0.361224
v -0.100754 0.292365 0.040621
v -0.139702 0.187219 -0.274098
v -0.100754 0.292365 -0.214809
v -0.139835 0.176704 0.361289
v -0.100754 0.297622 -0.084969
v 0.258162 0.105731 -0.369724
v 0.258162 0.105731 0.361289
v 0.258162 0.105731 -0.063719
v -0.277908 0.105731 0.361289
v -0.277908 0.105731 -0.369724
v -0.277908 0.105731 -0.063719
v -0.009873 0.105731 -0.369724
v -0.009873 0.105730 0.380840
v 0.120794 0.029500 0.378290
v 0.225327 0.029500 -0.369724
v 0.120794 0.029500 -0.063719
v 0.231358 0.105731 -0.369724
v 0.124144 0.105730 0.378290
v -0.245074 0.029500 -0.369724
v -0.140540 0.029500 0.378290
v -0.140540 0.029500 -0.063719
v -0.251104 0.105731 -0.369724
v -0.143890 0.105730 0.378290
v 0.231367 0.102445 0.384240
v 0.231367 0.043300 0.384240
v 0.110747 0.043300 0.401240
v -0.130493 0.043300 0.401240
v -0.009873 0.043300 0.403790
v -0.251113 0.043300 0.384240
v -0.251113 0.102445 0.384240
v -0.009873 0.102444 0.403790
v 0.110747 0.102445 0.401240
v -0.130493 0.102445 0.401240
v -0.277908 0.094778 -0.369724
v -0.277908 0.061482 -0.369724
v 0.258162 0.094778 -0.369724
v 0.258162 0.061482 -0.369724
v 0.258162 0.094778 0.361289
v 0.258162 0.050967 0.361289
v -0.009873 0.099028 -0.386725
v -0.009873 0.041438 -0.386725
v 0.258162 0.094778 -0.063719
v 0.258162 0.061482 -0.063719
v -0.277908 0.094778 -0.063719
v -0.277908 0.061482 -0.063719
v -0.277908 0.050967 0.361289
v -0.277908 0.094778 0.361289
v 0.243420 0.099028 -0.386725
v 0.243420 0.041438 -0.386725
v -0.263166 0.099028 -0.386725
v -0.263166 0.041438 -0.386725
v 0.231367 0.092587 0.386790
v 0.231367 0.053158 0.386790
v -0.251113 0.053158 0.386790
v -0.251113 0.092587 0.386790
v -0.009873 0.053157 0.406340
v -0.009873 0.092587 0.406340
v 0.110747 0.092587 0.403790
v 0.110747 0.053158 0.403790
v -0.130493 0.092587 0.403790
v -0.130493 0.053158 0.403790
v -0.150038 0.162342 0.357487
v -0.260506 0.160765 0.350262
v 0.240800 0.160765 0.350262
v 0.130313 0.162342 0.357487
v -0.153485 0.109375 0.371937
v -0.267400 0.109375 0.357487
v 0.247657 0.109375 0.357487
v 0.133742 0.109375 0.371937
v -0.133211 0.189637 0.139866
v -0.256549 0.179648 0.131365
v -0.096210 0.289526 0.043166
v -0.182546 0.279537 0.034665
v 0.236803 0.179648 0.131365
v 0.162800 0.279537 0.034665
v 0.113465 0.189637 0.139866
v -0.009873 0.192792 0.139866
v 0.076463 0.289526 0.043166
v -0.009873 0.292680 0.043166
v -0.277908 0.171447 -0.063719
v -0.265637 0.182093 0.120953
v -0.195529 0.276724 0.029342
v -0.265637 0.182093 -0.056913
v -0.195529 0.281456 -0.076038
v -0.265637 0.182093 -0.072649
v -0.265637 0.182093 -0.250515
v -0.195529 0.281456 -0.091774
v -0.195529 0.276724 -0.197155
v -0.265637 0.182093 -0.072649
v -0.265637 0.182093 -0.250515
v -0.195529 0.281456 -0.091774
v -0.195529 0.276724 -0.197155
v -0.265286 0.182578 -0.073453
v -0.265286 0.182578 -0.249540
v -0.195880 0.280947 -0.092387
v -0.195880 0.276263 -0.196714
v -0.265286 0.182578 0.119787
v -0.195880 0.276263 0.029092
v -0.265286 0.182578 -0.056301
v -0.195880 0.280947 -0.075235
v 0.245891 0.182093 -0.056913
v 0.245891 0.182093 0.120953
v 0.175783 0.281456 -0.076038
v 0.175783 0.276724 0.029342
v 0.175783 0.276724 -0.197155
v 0.245891 0.182093 -0.250515
v 0.245891 0.182093 -0.072649
v 0.175783 0.281456 -0.091774
v 0.177001 0.275121 -0.195622
v 0.244673 0.183778 -0.247127
v 0.244673 0.183778 -0.075442
v 0.177001 0.279688 -0.093903
v 0.244673 0.183778 -0.054785
v 0.244673 0.183778 0.116900
v 0.177001 0.279688 -0.073245
v 0.177001 0.275121 0.028473
v -0.271207 0.029500 0.288507
v 0.258162 0.163561 0.242287
v -0.009873 0.029500 0.267788
v -0.277908 0.163561 0.242287
v 0.251461 0.029500 0.288507
v 0.258162 0.126760 0.253643
v -0.277908 0.126760 0.253643
v 0.120794 0.029500 0.267788
v -0.140540 0.029500 0.267788
v -0.277908 0.061482 0.288507
v 0.258162 0.061482 0.288507
v -0.277908 0.165532 0.165786
v 0.251461 0.029500 0.149051
v 0.258162 0.126760 0.183915
v 0.258162 0.061482 0.149051
v -0.271207 0.029500 0.149051
v 0.258162 0.165532 0.165786
v -0.009873 0.029500 0.165786
v -0.277908 0.126760 0.183915
v 0.120794 0.029500 0.165786
v -0.140540 0.029500 0.165786
v -0.277908 0.061482 0.149051
v -0.277908 0.171447 -0.269847
v 0.251461 0.029500 -0.286848
v -0.271207 0.029500 -0.286848
v 0.258162 0.171447 -0.269847
v -0.009873 0.029500 -0.286848
v 0.258162 0.126760 -0.259169
v -0.277908 0.126760 -0.259169
v 0.199194 0.029500 -0.286848
v -0.218940 0.029500 -0.286848
v 0.258162 0.061482 -0.286848
v -0.277908 0.061482 -0.286848
v -0.265637 0.182093 -0.206048
v -0.195529 0.277907 -0.170810
v -0.265637 0.182093 -0.206048
v -0.195529 0.277907 -0.170810
v -0.271207 0.029500 -0.146064
v 0.258162 0.171447 -0.163064
v -0.009873 0.029500 -0.146064
v -0.277908 0.126760 -0.173743
v 0.179594 0.029500 -0.146064
v -0.199340 0.029500 -0.146064
v -0.277908 0.061482 -0.146064
v -0.277908 0.171447 -0.163064
v 0.251461 0.029500 -0.146064
v 0.258162 0.126760 -0.173743
v 0.258162 0.061482 -0.146064
v -0.265637 0.182093 -0.172699
v -0.195529 0.278794 -0.151051
v -0.265637 0.182093 -0.172699
v -0.195529 0.278794 -0.151051
v -0.195880 0.278312 -0.151071
v 0.113465 0.189669 -0.272615
v 0.236803 0.179680 -0.259865
v 0.076463 0.289557 -0.216291
v 0.162800 0.279568 -0.203541
v -0.182546 0.279568 -0.203541
v -0.256549 0.179680 -0.259865
v -0.133211 0.189669 -0.272615
v -0.009873 0.192665 -0.276865
v -0.096210 0.289557 -0.216291
v -0.009873 0.292554 -0.220541
v 0.107298 0.191996 -0.271207
v 0.224469 0.182507 -0.258457
v 0.072147 0.286890 -0.217699
v 0.154166 0.277401 -0.204949
v -0.173912 0.277401 -0.204949
v -0.244215 0.182507 -0.258457
v -0.127044 0.191996 -0.271207
v -0.009873 0.194843 -0.275457
v -0.091893 0.286890 -0.217699
v -0.009873 0.289737 -0.221949
v -0.009873 0.176704 0.363839
v 0.120111 0.176704 0.361289
v -0.139835 0.176704 0.361289
v -0.009873 0.105730 0.380840
v 0.124144 0.105730 0.378290
v -0.143890 0.105730 0.378290
v -0.009873 0.171708 -0.360841
v 0.271563 0.121503 0.253643
v -0.291310 0.121503 0.253643
v -0.291310 0.056225 0.288507
v 0.271563 0.056225 0.288507
v 0.271563 0.121503 0.183915
v 0.271563 0.056225 0.149051
v -0.291310 0.121503 0.183915
v -0.291310 0.056225 0.149051
v 0.271563 0.121503 -0.259169
v -0.291310 0.121503 -0.259169
v 0.271563 0.056225 -0.286848
v -0.291310 0.056225 -0.286848
v -0.291310 0.121503 -0.173743
v -0.291310 0.056225 -0.146064
v 0.271563 0.121503 -0.173743
v 0.271563 0.056225 -0.146064
v -0.291310 0.116607 0.248413
v -0.291310 0.061120 0.278048
v -0.291310 0.116607 0.189145
v -0.291310 0.061120 0.159510
v 0.271563 0.116607 0.248413
v 0.271563 0.061120 0.278048
v 0.271563 0.116607 0.189145
v 0.271563 0.061120 0.159510
v 0.271563 0.118237 -0.252762
v 0.271563 0.059490 -0.276289
v 0.271563 0.118237 -0.180150
v 0.271563 0.059490 -0.156623
v -0.291310 0.116607 -0.252762
v -0.291310 0.061120 -0.276289
v -0.291310 0.116607 -0.180150
v -0.291310 0.061120 -0.156623
v -0.127044 0.191966 0.137278
v -0.244215 0.182477 0.129203
v -0.091893 0.286860 0.045413
v -0.173912 0.277371 0.037338
v 0.224469 0.182477 0.129203
v 0.154166 0.277371 0.037338
v 0.107298 0.191966 0.137278
v -0.009873 0.194963 0.137278
v 0.072147 0.286860 0.045413
v -0.009873 0.289857 0.045413
vn -0.7676 0.0841 -0.6354
vn -0.9425 -0.0776 -0.3252
vn -0.5955 -0.7429 -0.3057
vn -0.4341 -0.8964 -0.0894
vn 0.0006 -0.0951 -0.9955
vn 0.7884 0.1065 0.6058
vn 0.9181 -0.1267 0.3754
vn 0.5980 -0.7287 0.3336
vn 0.4256 -0.9012 0.0817
vn -0.0000 -1.0000 -0.0000
vn 0.1675 0.8734 0.4572
vn 0.3423 0.6344 0.6931
vn 0.5070 0.8504 0.1407
vn 0.0718 0.9515 0.2993
vn -0.8162 0.5777 0.0097
vn 0.0763 0.9971 0.0007
vn 0.1347 0.7560 -0.6406
vn -0.0000 0.8281 -0.5606
vn -0.0000 1.0000 0.0010
vn -0.1248 0.7819 -0.6108
vn -0.0000 0.9030 0.4297
vn -0.1060 0.8571 0.5041
vn -0.0829 0.5737 0.8149
vn -0.0000 0.6404 0.7681
vn 0.0157 0.4999 -0.8659
vn 0.8179 0.5753 -0.0096
vn -0.4082 0.8535 0.3237
vn -0.0861 0.6026 0.7934
vn 0.0891 0.9371 -0.3374
vn 0.0398 0.6787 -0.7333
vn -0.0000 0.6788 -0.7343
vn -0.0000 0.8884 -0.4590
vn -0.7662 0.1891 0.6141
vn -0.6883 0.7252 0.0182
vn -0.0398 0.6787 -0.7333
vn -0.0892 0.9371 -0.3375
vn -0.0718 0.9515 0.2993
vn -0.1675 0.8735 0.4571
vn -0.0000 0.9985 0.0548
vn -0.0000 0.9207 0.3903
vn 0.7676 0.0841 0.6354
vn 0.9947 -0.1031 -0.0000
vn 0.6304 -0.7762 -0.0000
vn 0.4348 -0.8955 0.0950
vn -0.7861 0.1111 -0.6080
vn -0.9947 -0.1031 -0.0000
vn -0.6304 -0.7762 -0.0000
vn -0.4338 -0.8966 -0.0894
vn 0.7988 0.6015 0.0100
vn -0.0763 0.9971 0.0007
vn -0.5030 0.8643 -0.0007
vn 0.1060 0.8571 0.5041
vn -0.8179 0.5753 -0.0096
vn 0.4082 0.8535 0.3237
vn 0.5030 0.8643 -0.0007
vn 0.4518 0.8822 -0.1325
vn 0.2279 0.6682 -0.7083
vn 0.0829 0.5737 0.8149
vn -0.0414 0.5698 -0.8208
vn -0.5068 0.8505 0.1407
vn -0.3416 0.6345 0.6934
vn -0.2282 0.6668 -0.7095
vn -0.4507 0.8827 -0.1328
vn 0.0861 0.6026 0.7934
vn 0.0646 0.7867 0.6139
vn 0.1116 0.2806 -0.9533
vn -0.0000 0.4195 -0.9077
vn 1.0000 -0.0000 -0.0000
vn -1.0000 -0.0000 -0.0000
vn 0.1679 0.8985 0.4056
vn -0.0000 0.9898 0.1425
vn -0.0000 0.7413 0.6712
vn 0.0532 0.7326 0.6786
vn 0.3733 -0.3903 -0.8416
vn 0.9425 -0.0776 -0.3252
vn 0.5955 -0.7429 -0.3057
vn -0.3733 -0.3903 -0.8416
vn -0.0000 -0.4612 -0.8873
vn -0.0000 -0.9535 -0.3013
vn 0.7791 0.2763 0.5628
vn 0.3128 0.6544 0.6885
vn -0.0000 -0.9666 0.2565
vn 0.0262 -0.9578 0.2861
vn 0.0592 -0.5906 0.8048
vn -0.0000 -0.6047 0.7964
vn -0.5980 -0.7287 0.3336
vn -0.0262 -0.9578 0.2861
vn -0.0592 -0.5906 0.8048
vn -0.3382 -0.5076 0.7925
vn 0.3107 0.0913 0.9461
vn 0.4222 -0.1148 0.8992
vn 0.0795 -0.1253 0.9889
vn 0.3382 -0.5076 0.7925
vn -0.0000 -0.1260 0.9920
vn -0.0795 -0.1253 0.9889
vn -0.4222 -0.1148 0.8992
vn 0.9156 0.0258 0.4012
vn 0.4194 0.0892 0.9034
vn -0.1679 0.8985 0.4056
vn -0.7791 0.2762 0.5628
vn -0.3128 0.6544 0.6885
vn -0.0532 0.7326 0.6786
vn -0.9181 -0.1267 0.3754
vn 0.7679 0.1885 0.6122
vn -0.0732 0.8133 0.5772
vn -0.9156 0.0258 0.4012
vn -0.4194 0.0892 0.9034
vn -0.0795 0.1253 0.9889
vn -0.0000 0.1260 0.9920
vn 0.0795 0.1253 0.9889
vn -0.0000 -0.0000 -1.0000
vn -0.8836 0.1432 -0.4459
vn -0.3909 0.5494 -0.7385
vn -0.0000 0.6223 -0.7828
vn 0.0635 0.6004 -0.7972
vn 0.3909 0.5494 -0.7385
vn -0.0000 0.5627 -0.8267
vn -0.0635 0.6003 -0.7972
vn 0.8836 0.1432 -0.4459
vn 0.0954 0.2114 0.9727
vn -0.0955 0.2115 0.9727
vn -0.5420 0.2374 0.8062
vn 0.0470 -0.3024 0.9520
vn 0.0732 0.8133 0.5772
vn -0.0471 -0.3024 0.9520
vn -0.3107 0.0916 0.9461
vn 0.5419 0.2372 0.8063
vn -0.0569 0.6546 0.7539
vn -0.0000 0.6604 0.7510
vn -0.0000 0.7516 0.6596
vn 0.0615 0.8001 0.5967
vn 0.0576 0.7493 0.6597
vn -0.0000 0.7323 0.6809
vn 0.0842 0.7818 0.6178
vn -0.0646 0.7867 0.6139
vn -0.0615 0.8001 0.5967
vn -0.0576 0.7493 0.6597
vn -0.0842 0.7818 0.6178
vn 0.5316 0.8470 -0.0000
vn 0.5279 0.8493 -0.0004
vn 0.6888 0.7247 0.0181
vn -0.5294 0.8484 -0.0003
vn -0.8029 0.5956 0.0267
vn -0.7988 0.6015 0.0100
vn -0.8105 0.5858 -0.0000
vn -0.0000 1.0000 -0.0000
vn -0.8008 0.5989 -0.0100
vn -0.8117 0.5840 0.0061
vn -0.8051 0.5931 0.0058
vn -0.8033 0.5954 0.0152
vn -0.8090 0.5875 0.0166
vn -0.8028 0.5956 0.0267
vn -0.7988 0.6016 0.0101
vn 0.8162 0.5777 0.0096
vn 0.8029 0.5956 0.0267
vn 0.8162 0.5777 0.0097
vn 0.8105 0.5858 -0.0000
vn 0.8008 0.5989 -0.0100
vn 0.8080 0.5886 -0.0264
vn 0.8051 0.5931 0.0058
vn 0.8117 0.5840 0.0061
vn 0.8090 0.5875 0.0166
vn 0.8033 0.5953 0.0151
vn 0.7988 0.6015 0.0101
vn -0.7884 0.1065 0.6058
vn -0.4256 -0.9012 0.0817
vn 0.7861 0.1111 -0.6080
vn 0.4338 -0.8966 -0.0894
vn -0.9088 0.3689 0.1951
vn 0.7676 0.0841 -0.6354
vn 0.4348 -0.8955 -0.0950
vn -0.7676 0.0841 0.6354
vn -0.4341 -0.8964 0.0894
vn -0.1347 0.7560 -0.6406
vn -0.4007 0.8089 -0.4303
vn 0.4007 0.8089 -0.4303
vn -0.8080 0.5886 -0.0264
vn -0.8079 0.5887 -0.0264
vn -0.8064 0.5913 -0.0059
vn -0.8131 0.5821 -0.0058
vn -0.8119 0.5835 -0.0161
vn -0.8088 0.5878 -0.0181
vn -0.8062 0.5915 -0.0157
vn 0.8131 0.5821 -0.0058
vn 0.8064 0.5913 -0.0058
vn 0.8062 0.5915 -0.0157
vn 0.8119 0.5835 -0.0161
vn -0.1116 0.2806 -0.9533
vn -0.0000 0.4589 -0.8885
vn -0.0883 0.4417 -0.8928
vn 0.0883 0.4417 -0.8928
vn 0.0887 0.3291 -0.9401
vn 0.1340 0.3616 -0.9227
vn -0.0887 0.3291 -0.9401
vn -0.1340 0.3616 -0.9227
vn 0.1248 0.7819 -0.6108
vn -0.0157 0.4999 -0.8659
vn 0.0414 0.5698 -0.8208
vn 0.0851 0.5677 -0.8188
vn -0.0000 0.5355 -0.8446
vn -0.0851 0.5677 -0.8188
vn -0.0913 0.6527 -0.7521
vn 0.0913 0.6527 -0.7521
vn -0.1277 0.7877 -0.6027
vn 0.1277 0.7877 -0.6027
vn 0.0428 0.5711 -0.8198
vn -0.0428 0.5711 -0.8198
vn -0.0000 0.2334 0.9724
vn 0.0188 0.2334 0.9722
vn -0.0188 0.2334 0.9722
vn -0.0006 -0.0951 -0.9955
vn -0.0035 0.1475 -0.9891
vn 0.0035 0.1475 -0.9891
vn 0.9088 0.3689 0.1951
vn -0.1817 0.4633 -0.8674
vn -0.9150 0.3494 0.2016
vn -0.7107 0.5517 0.4366
vn -0.7665 -0.2030 0.6093
vn -0.3652 0.9309 -0.0000
vn -0.9150 0.3494 -0.2016
vn -0.7107 0.5517 -0.4366
vn 0.1514 0.3859 0.9100
vn 0.7712 -0.1755 0.6119
vn 0.7211 0.5667 0.3985
vn 0.1514 0.3859 -0.9100
vn 0.3652 0.9309 -0.0000
vn -0.7211 0.5667 0.3985
vn -0.7712 -0.1755 0.6119
vn 0.1817 0.4633 -0.8674
vn -0.7665 -0.2030 -0.6093
vn -0.9830 -0.1662 -0.0778
vn -0.7712 -0.1755 -0.6119
vn -0.7693 -0.5787 0.2709
vn 0.9830 -0.1662 -0.0778
vn 0.7693 -0.5787 0.2709
vn 0.7712 -0.1755 -0.6119
vn 0.7522 -0.1808 -0.6336
vn 0.7857 -0.5910 0.1828
vn 0.7522 -0.1808 0.6336
vn 0.7857 -0.5910 -0.1828
vn -0.9820 -0.1712 0.0794
vn -0.9820 -0.1712 -0.0794
vn -0.7698 -0.5791 -0.2685
vn 0.1132 0.6272 0.7706
vn 0.0569 0.6546 0.7539
vn -0.1132 0.6272 0.7706
s 0
usemtl Body
f 17//5 44//5 28//5 8//5 243//5
s 1
f 41//11 25//12 12//13 42//14
s 0
f 36//15 34//15 130//15 131//15
s 1
f 45//16 40//17 23//18 38//19
s 0
f 49//20 10//20 222//20 223//20
s 1
f 24//21 48//22 119//23 126//24
s 0
f 15//25 11//25 218//25 220//25
f 37//26 35//26 154//26 155//26
s 1
f 48//22 13//27 120//28 119//23
f 39//29 44//30 17//31 21//32
s 0
f 2//33 56//33 26//33
f 2//34 26//34 9//34 34//34 127//34
s 1
f 47//35 49//36 21//32 17//31
f 46//37 51//38 19//39 22//40
s 0
f 16//49 12//49 149//49 151//49
s 1
f 48//22 52//50 36//51 13//27
f 43//52 45//16 38//19 24//21
s 0
f 34//53 36//53 134//53 132//53
s 1
f 16//54 37//55 45//16 43//52
f 11//56 28//57 44//30 39//29
f 43//52 24//21 126//24 125//58
s 0
f 21//59 49//59 223//59 224//59
s 1
f 19//39 41//11 42//14 22//40
f 24//21 38//19 52//50 48//22
f 9//60 26//61 51//38 46//37
f 27//62 10//63 49//36 47//35
f 12//13 16//54 122//64 121//65
f 23//18 40//17 219//66 226//67
s 0
f 202//68 31//68 55//68 210//68
f 165//68 6//68 54//68 169//68
f 175//69 29//69 58//69 182//69
f 186//69 4//69 57//69 192//69
f 26//90 56//90 114//90 110//90
f 25//104 54//104 6//104
f 56//105 70//105 113//105 114//105
f 57//111 69//111 81//111
f 89//68 90//68 211//68 210//68 55//68
f 177//68 178//68 90//68 89//68 55//68
f 70//122 51//122 109//122 113//122
f 25//123 41//123 112//123 111//123
f 65//124 54//124 115//124 116//124
f 51//125 26//125 110//125 109//125
f 54//126 25//126 111//126 115//126
f 41//127 65//127 116//127 112//127
s 1
f 13//27 9//60 118//135 120//28
f 22//40 42//14 123//131 124//130
f 46//37 22//40 124//130 117//136
f 42//14 12//13 121//65 123//131
f 9//60 46//37 117//136 118//135
f 16//54 43//52 125//58 122//64
s 0
f 202//139 189//139 8//139 11//139 35//139 31//139
f 11//140 8//140 28//140
f 31//141 35//141 12//141 25//141 6//141 165//141 180//141
f 127//142 34//142 10//142 27//142 4//142
f 13//143 36//143 131//143 129//143
f 9//144 13//144 129//144 128//144
f 34//145 9//145 128//145 130//145
f 14//147 10//147 133//147 135//147
f 10//145 34//145 132//145 212//145 197//145 133//145
f 37//155 16//155 151//155 150//155
f 35//156 37//156 150//156 148//156
f 12//157 35//157 148//157 149//157
f 11//158 15//158 152//158 153//158
f 15//159 37//159 155//159 152//159
f 83//111 64//111 53//111
f 91//69 92//69 185//69 182//69 58//69
f 2//69 167//69 170//69 56//69
f 180//68 165//68 169//68 177//68
f 31//68 180//68 177//68 55//68
f 167//69 175//69 182//69 170//69
f 208//69 186//69 192//69 204//69
f 8//68 189//68 191//68 53//68
s 1
f 52//50 50//174 14//175 36//51
f 37//55 15//176 40//17 45//16
f 38//19 23//18 50//174 52//50
s 0
f 14//177 135//177 198//177 213//177 134//177 36//177
f 29//69 208//69 204//69 58//69
f 35//157 11//157 153//157 154//157
f 189//68 202//68 210//68 191//68
f 11//196 39//196 217//196 218//196
s 1
f 40//17 15//176 220//192 219//66
f 14//175 50//174 225//188 221//194
s 0
f 10//197 14//197 221//197 222//197
s 1
f 50//174 23//18 226//67 225//188
s 0
f 39//198 21//198 224//198 217//198
s 1
f 237//208 240//208 241//209 238//209
f 239//210 242//210 240//208 237//208
s 0
f 243//211 4//211 27//211 47//211 17//211
f 57//212 4//212 243//212 59//212 69//212
f 8//213 53//213 64//213 59//213 243//213
f 204//69 207//69 92//69 91//69 58//69
f 191//68 195//68 84//68 83//68 53//68
f 192//69 57//69 81//69 82//69 196//69
s 1
usemtl Black
f 126//24 119//23 278//128 285//129
f 124//130 123//131 282//132 283//133
f 123//131 121//65 280//134 282//132
f 118//135 117//136 276//137 277//138
s 0
f 212//146 132//146 136//146 214//146
f 130//145 128//145 144//145 146//145
f 149//157 148//157 160//157 161//157
f 133//146 197//146 199//146 137//146
f 137//145 199//145 214//145 136//145 140//145 141//145
f 197//146 212//146 214//146 199//146
f 154//157 153//157 157//157 158//157
s 1
f 225//188 226//67 236//189 235//190
f 226//67 219//66 229//191 236//189
f 219//66 220//192 230//193 229//191
f 221//194 225//188 235//190 231//195
s 0
f 222//197 221//197 231//197 232//197
f 220//25 218//25 228//25 230//25
f 223//204 222//204 232//204 233//204
f 218//205 217//205 227//205 228//205
f 217//206 224//206 234//206 227//206
f 224//207 223//207 233//207 234//207
s 1
f 119//23 120//28 279//246 278//128
f 122//64 125//58 284//245 281//244
f 125//58 126//24 285//129 284//245
f 120//28 118//135 277//138 279//246
f 121//65 122//64 281//244 280//134
f 117//136 124//130 283//133 276//137
s 0
usemtl Window
f 131//15 130//15 146//15 147//15
f 135//146 133//146 137//146 139//146
f 132//146 134//146 138//146 136//146
f 198//146 135//146 139//146 200//146
f 136//53 138//53 142//53 140//53
f 139//147 137//147 141//147 143//147
s 1
f 146//148 144//149 145//150 147//151
s 0
f 129//152 131//152 147//152 145//152
f 128//153 129//153 145//153 144//153
f 148//154 150//154 162//154 160//154
f 153//158 152//158 156//158 157//158
f 155//26 154//26 158//26 159//26
s 1
f 161//160 160//161 162//162 163//163
s 0
f 150//155 151//155 163//155 162//155
f 151//164 149//164 161//164 163//164
f 213//146 198//146 200//146 215//146
f 152//159 155//159 159//159 156//159
f 134//146 213//146 215//146 138//146
f 138//178 215//178 216//178 142//178
s 1
f 141//179 140//180 142//181 216//182 143//183
s 0
f 215//178 200//178 139//178 143//178 216//178
s 1
f 158//184 157//185 156//186 159//187
f 227//199 234//200 236//189 229//191
f 233//201 232//202 231//195 235//190
f 228//203 227//199 229//191 230//193
f 234//200 233//201 235//190 236//189
f 282//132 280//134 281//244 284//245
f 276//137 283//133 285//129 278//128
f 283//133 282//132 284//245 285//129
f 277//138 276//137 278//128 279//246
usemtl Bumpers
f 196//1 82//2 3//3 188//4
f 174//6 86//7 5//8 168//9
f 211//41 90//42 32//43 209//44
f 185//45 92//46 30//47 179//48
f 65//70 60//71 78//72 79//73
f 96//74 84//75 7//76
f 98//77 88//78 18//79 66//79
f 54//80 65//70 79//73 71//81
f 20//82 61//83 73//84 75//85
f 88//78 96//74 62//79 18//79
f 1//86 67//87 74//88 76//89
f 3//3 98//77 66//79
f 100//91 106//92 73//84 72//93
f 106//92 103//94 75//85 73//84
f 108//95 101//96 76//89 74//88
f 103//94 108//95 74//88 75//85
f 61//83 5//8 72//93 73//84
f 85//97 54//80 71//81 99//98
f 70//99 56//100 77//101 80//102
f 67//87 20//82 75//85 74//88
f 93//103 1//86 76//89 101//96
f 60//71 70//99 80//102 78//72
f 56//100 94//106 102//107 77//101
f 94//106 93//103 101//96 102//107
f 5//8 86//7 100//91 72//93
f 86//7 85//97 99//98 100//91
f 78//72 80//102 107//108 104//109
f 104//109 107//108 108//95 103//94
f 80//102 77//101 102//107 107//108
f 107//108 102//107 101//96 108//95
f 79//73 78//72 104//109 105//110
f 105//110 104//109 103//94 106//92
f 71//81 79//73 105//110 99//98
f 99//98 105//110 106//92 100//91
f 81//112 97//113 98//77 82//2
f 59//114 64//115 95//116 87//117
f 87//117 95//116 96//74 88//78
f 69//118 59//114 87//117 97//113
f 97//113 87//117 88//78 98//77
f 64//115 83//119 95//116
f 95//116 83//119 84//75 96//74
f 81//112 69//118 97//113
f 7//76 62//79 96//74
f 93//103 173//165 164//166 1//86
f 90//42 178//167 176//168 32//43
f 56//100 170//169 94//106
f 84//75 195//170 187//171 7//76
f 92//46 207//172 201//173 30//47
f 98//77 3//3 82//2
f 85//97 86//7 174//6 169//214
s 0
f 182//215 185//215 251//215 250//215
s 1
f 207//172 204//216 256//217 257//218
s 0
f 170//219 182//219 250//219 245//219
s 1
f 204//216 192//220 253//221 256//217
s 0
f 210//222 211//222 259//222 258//222
s 1
f 169//214 174//6 247//223 244//224
s 0
f 195//225 191//225 252//225 254//225
f 191//226 210//226 258//226 252//226
s 1
f 173//165 170//169 245//227 246//228
s 0
f 178//229 177//229 248//229 249//229
s 1
f 192//220 196//1 255//230 253//221
s 0
f 177//226 169//226 244//226 248//226
f 250//69 251//69 263//69 262//69
s 1
f 246//228 245//227 260//69 261//231
s 0
f 245//69 250//69 262//69 260//69
s 1
f 179//48 251//232 185//45
s 0
f 251//233 179//233 263//233
s 1
f 173//165 246//228 164//166
f 246//228 261//231 164//166
s 0
f 249//68 248//68 266//68 267//68
f 248//68 244//68 264//68 266//68
s 1
f 244//224 247//223 265//234 264//68
f 168//9 247//223 174//6
f 247//223 168//9 265//234
s 0
f 249//235 267//235 176//235
s 1
f 169//214 54//80 85//97
f 94//106 170//169 173//165 93//103
f 178//167 249//236 176//168
s 0
f 254//68 252//68 268//68 269//68
f 258//68 259//68 271//68 270//68
f 252//68 258//68 270//68 268//68
s 1
f 195//170 254//237 187//171
s 0
f 254//238 269//238 187//238
s 1
f 209//44 259//239 211//41
s 0
f 259//240 209//240 271//240
s 1
f 188//4 255//230 196//1
f 253//221 255//230 273//241 272//69
f 256//217 253//221 272//69 274//69
f 257//218 256//217 274//69 275//242
f 255//230 188//4 273//241
f 207//172 257//218 201//173
s 0
f 257//243 275//243 201//243
usemtl Lights
f 112//120 116//120 115//120 111//120
f 110//121 114//121 113//121 109//121
usemtl Bottom
f 193//10 62//10 7//10 187//10
f 194//10 66//10 18//10 190//10
f 184//10 68//10 33//10 181//10
f 183//10 63//10 32//10 176//10
f 181//10 33//10 63//10 183//10
f 190//10 18//10 62//10 193//10
f 179//10 30//10 68//10 184//10
f 188//10 3//10 66//10 194//10
f 1//10 164//10 172//10 67//10
f 20//10 166//10 171//10 61//10
f 61//10 171//10 168//10 5//10
f 67//10 172//10 166//10 20//10
f 164//10 179//10 184//10 172//10
f 166//10 181//10 183//10 171//10
f 171//10 183//10 176//10 168//10
f 172//10 184//10 181//10 166//10
f 201//10 188//10 194//10 206//10
f 203//10 190//10 193//10 205//10
f 206//10 194//10 190//10 203//10
f 205//10 193//10 187//10 209//10
f 63//10 205//10 209//10 32//10
f 68//10 206//10 203//10 33//10
f 33//10 203//10 205//10 63//10
f 30//10 201//10 206//10 68//10
